<svg id="Logo" xmlns="http://www.w3.org/2000/svg" width="200" height="70" viewBox="0 0 200 70">
  <g id="Group_628" data-name="Group 628">
    <path id="Path_21" data-name="Path 21" d="M23.044,54.288a2.765,2.765,0,0,0,2.084.944H54.547a2.771,2.771,0,0,0,1.956-.806L67.764,65.605a4.622,4.622,0,0,1-3.346,1.43H15.259a4.631,4.631,0,0,1-3.476-1.569Z" transform="translate(0.575 2.965)" fill="#41217f"/>
    <path id="Path_22" data-name="Path 22" d="M22.4,25.146V54.73a2.8,2.8,0,0,0,.7,1.855L11.837,67.763a4.678,4.678,0,0,1-1.176-3.109V15.222a4.672,4.672,0,0,1,1.073-2.989L23,23.412a2.8,2.8,0,0,0-.6,1.734" transform="translate(0.52 0.668)" fill="#5f4092"/>
    <path id="Path_23" data-name="Path 23" d="M12.382,43.657a2.769,2.769,0,0,0,2.084.944h29.42a2.769,2.769,0,0,0,1.955-.806L57.1,54.974a4.623,4.623,0,0,1-3.347,1.43H4.6a4.631,4.631,0,0,1-3.476-1.569Z" transform="translate(0.055 2.385)" fill="#e93646"/>
    <path id="Path_24" data-name="Path 24" d="M11.737,14.515V44.1a2.8,2.8,0,0,0,.7,1.855L1.176,57.132A4.678,4.678,0,0,1,0,54.023V4.591A4.672,4.672,0,0,1,1.073,1.6L12.336,12.781a2.8,2.8,0,0,0-.6,1.734" transform="translate(0 0.088)" fill="#fe9e00"/>
    <path id="Path_25" data-name="Path 25" d="M43.892,11.8H14.472a2.772,2.772,0,0,0-2.185,1.065L1.024,1.688A4.632,4.632,0,0,1,4.6,0H53.761a4.628,4.628,0,0,1,3.455,1.545L45.955,12.722a2.773,2.773,0,0,0-2.063-.92" transform="translate(0.05)" fill="#e93646"/>
    <path id="Path_26" data-name="Path 26" d="M44.591,44.106V14.522a2.8,2.8,0,0,0-.721-1.879L55.131,1.465a4.679,4.679,0,0,1,1.2,3.133V54.03a4.679,4.679,0,0,1-1.3,3.248L43.761,46.1a2.8,2.8,0,0,0,.83-1.993" transform="translate(2.135 0.08)" fill="#e93646"/>
    <path id="Path_27" data-name="Path 27" d="M55.252,54.737V25.153a2.8,2.8,0,0,0-.721-1.879L65.792,12.1a4.679,4.679,0,0,1,1.2,3.133V64.661a4.679,4.679,0,0,1-1.3,3.248L54.422,56.73a2.8,2.8,0,0,0,.83-1.993" transform="translate(2.655 0.66)" fill="#41217f"/>
    <path id="Path_28" data-name="Path 28" d="M54.553,22.434H25.133A2.772,2.772,0,0,0,22.948,23.5L11.685,12.32a4.632,4.632,0,0,1,3.578-1.688H64.422a4.628,4.628,0,0,1,3.455,1.545L56.616,23.354a2.773,2.773,0,0,0-2.063-.92" transform="translate(0.57 0.581)" fill="#5f4092"/>
    <path id="Path_29" data-name="Path 29" d="M59.817,64.627h-.005A4.921,4.921,0,0,1,54.9,59.693v0a4.91,4.91,0,1,1,9.82,0v0a4.921,4.921,0,0,1-4.907,4.935" transform="translate(2.678 2.99)" fill="#e9465c"/>
  </g>
  <g id="Group_627" data-name="Group 627">
    <path id="Path_30" data-name="Path 30" d="M87.736,30.116A9.346,9.346,0,0,1,83.4,31.181a8.657,8.657,0,0,1-8.867-8.844,8.868,8.868,0,0,1,17.735,0,8.727,8.727,0,0,1-1.879,5.574l2.29,3.029H88.362ZM83.4,27.547a4.869,4.869,0,0,0,2.048-.436l-2.988-3.926h4.314l1.109,1.454a5.849,5.849,0,0,0,.457-2.3,4.947,4.947,0,1,0-9.88,0,4.918,4.918,0,0,0,4.94,5.21" transform="translate(3.636 0.737)" fill="#FFFFFF"/>
    <path id="Path_31" data-name="Path 31" d="M94.29,24.408V13.722H98.1V24.433c0,2.568,1.567,3.15,2.8,3.15s2.8-.582,2.8-3.15V13.722H107.5V24.408c0,4.41-2.964,6.76-6.6,6.76-3.662,0-6.6-2.35-6.6-6.76" transform="translate(4.6 0.75)" fill="#FFFFFF"/>
    <path id="Path_32" data-name="Path 32" d="M118.93,13.723l6.531,17.2H121.34l-.964-2.738h-6.94l-.964,2.738h-4.121l6.53-17.2Zm.169,10.928-2.193-6.2-2.193,6.2Z" transform="translate(5.286 0.75)" fill="#ffffff"/>
    <path id="Path_33" data-name="Path 33" d="M126.824,13.722h3.807l7.157,10.928h.121V13.722h3.807v17.2h-3.807L130.751,20h-.121V30.926h-3.807Z" transform="translate(6.187 0.75)" fill="#ffffff"/>
    <path id="Path_34" data-name="Path 34" d="M147.479,17.236h-3.952V13.722h11.711v3.514h-3.952V30.927h-3.807Z" transform="translate(7.002 0.75)" fill="#ffffff"/>
    <path id="Path_35" data-name="Path 35" d="M157.2,24.408V13.722h3.807V24.433c0,2.568,1.567,3.15,2.8,3.15s2.8-.582,2.8-3.15V13.722H170.4V24.408c0,4.41-2.964,6.76-6.6,6.76-3.663,0-6.6-2.35-6.6-6.76" transform="translate(7.669 0.75)" fill="#ffffff"/>
    <path id="Path_36" data-name="Path 36" d="M172.867,13.722h4.193l5.157,12.334,5.157-12.334h4.193v17.2h-3.808V21.064h-.12l-4.024,9.862h-2.8l-4.024-9.862h-.121v9.862h-3.807Z" transform="translate(8.433 0.75)" fill="#ffffff"/>
  </g>
  <g id="Group_626" data-name="Group 626">
    <path id="Path_37" data-name="Path 37" d="M83.06,35.887H76.408V33.863H86.453L79.475,45.524h6.806v2.025h-10.2Z" transform="translate(3.711 1.85)" fill="#ffffff"/>
    <path id="Path_38" data-name="Path 38" d="M88.164,33.863h7.515v2.024H90.33v3.8h4.524V41.65H90.33v3.875h5.521v2.024H88.164Z" transform="translate(4.301 1.85)" fill="#ffffff"/>
    <path id="Path_39" data-name="Path 39" d="M102.562,42.864h-2.454v4.685H97.942V33.863h4.6a4.376,4.376,0,0,1,4.715,4.569,4.114,4.114,0,0,1-2.665,4.086l3.259,5.032h-2.319Zm-.268-1.908c1.668,0,2.76-.771,2.76-2.525s-1.093-2.545-2.76-2.545h-2.186v5.07Z" transform="translate(4.778 1.85)" fill="#ffffff"/>
    <path id="Path_40" data-name="Path 40" d="M108.744,40.716a6.959,6.959,0,1,1,6.959,7.035,6.853,6.853,0,0,1-6.959-7.035M115.7,45.67a4.732,4.732,0,0,0,4.734-4.954,4.739,4.739,0,1,0-9.468,0A4.732,4.732,0,0,0,115.7,45.67" transform="translate(5.305 1.84)" fill="#ffffff"/>
  </g>
  <rect id="Rectangle_10" data-name="Rectangle 10" width="25.726" height="0.681" transform="translate(79.794 54.141)" fill="#e1283f"/>
  <g id="Group_625" data-name="Group 625">
    <path id="Path_41" data-name="Path 41" d="M84.161,57.154h1.476l-2.2,6.745H82.426l-1.571-4.4-1.563,4.4H78.286l-2.2-6.745h1.476l1.3,4.2,1.447-4.2h1.1l1.446,4.2Z" transform="translate(3.712 3.121)" fill="#ffffff"/>
    <path id="Path_43" data-name="Path 43" d="M87.732,61.143v1.465h2.836V63.9H86.333V57.153h4.149v1.292h-2.75v1.426h2.08v1.272Z" transform="translate(4.212 3.121)" fill="#ffffff"/>
    <path id="Path_45" data-name="Path 45" d="M93.1,57.154v5.454h2.636V63.9H91.7V57.154Z" transform="translate(4.473 3.121)" fill="#ffffff"/>
    <path id="Path_47" data-name="Path 47" d="M98.22,57.154v5.454h2.636V63.9H96.821V57.154Z" transform="translate(4.723 3.121)" fill="#ffffff"/>
    <rect id="Rectangle_11" data-name="Rectangle 11" width="2.97" height="1.156" transform="translate(109.478 63.802)" fill="#ffffff"/>
    <path id="Path_49" data-name="Path 49" d="M114.656,60.17A1.857,1.857,0,0,1,116.035,62c0,1.156-.843,1.9-2.444,1.9h-2.472V57.154h2.339a2.194,2.194,0,0,1,1.523.491,1.538,1.538,0,0,1,.556,1.2,1.348,1.348,0,0,1-.881,1.32m-1.332-1.783h-.805v1.407h.815a.717.717,0,0,0,.814-.732c0-.433-.3-.675-.823-.675m-.805,4.279h1c.748,0,1.121-.3,1.121-.906,0-.587-.383-.886-1.159-.886h-.959Z" transform="translate(5.421 3.121)" fill="#ffffff"/>
    <path id="Path_51" data-name="Path 51" d="M118.438,61.143v1.465h2.837V63.9h-4.236V57.153h4.149v1.292h-2.75v1.426h2.08v1.272Z" transform="translate(5.709 3.121)" fill="#ffffff"/>
    <path id="Path_53" data-name="Path 53" d="M126.5,59.88V57.153h1.4V63.9h-1.4V61.171h-2.7V63.9h-1.4V57.153h1.4V59.88Z" transform="translate(5.971 3.121)" fill="#ffffff"/>
    <path id="Path_55" data-name="Path 55" d="M135.737,63.9h-1.485l-.479-1.2h-3.067l-.479,1.2h-1.485l2.8-6.744h1.4Zm-3.5-5.029-1.063,2.669H133.3Z" transform="translate(6.281 3.121)" fill="#ffffff"/>
    <path id="Path_57" data-name="Path 57" d="M138.833,62.183l2.013-5.029h1.485l-2.8,6.744h-1.4l-2.8-6.744h1.485Z" transform="translate(6.602 3.121)" fill="#ffffff"/>
    <path id="Path_59" data-name="Path 59" d="M144.5,61.143v1.465h2.836V63.9H143.1V57.153h4.149v1.292H144.5v1.426h2.08v1.272Z" transform="translate(6.981 3.121)" fill="#ffffff"/>
    <path id="Path_61" data-name="Path 61" d="M148.464,57.153h2.4a3.3,3.3,0,0,1,2.415.983,3.17,3.17,0,0,1,.987,2.351,3.364,3.364,0,0,1-3.4,3.412h-2.4Zm1.4,5.415h.987a1.814,1.814,0,0,0,1.447-.587,2.157,2.157,0,0,0,.526-1.494,2.019,2.019,0,0,0-.526-1.426,1.866,1.866,0,0,0-1.447-.578h-.987Z" transform="translate(7.243 3.121)" fill="#ffffff"/>
    <path id="Path_63" data-name="Path 63" d="M157.846,57.153h2.4a3.3,3.3,0,0,1,2.415.983,3.169,3.169,0,0,1,.987,2.351,3.364,3.364,0,0,1-3.4,3.412h-2.4Zm1.4,5.415h.987a1.814,1.814,0,0,0,1.447-.587,2.157,2.157,0,0,0,.526-1.494,2.019,2.019,0,0,0-.526-1.426,1.866,1.866,0,0,0-1.447-.578h-.987Z" transform="translate(7.7 3.121)" fill="#ffffff"/>
    <path id="Path_65" data-name="Path 65" d="M171.282,63.9H169.8l-.479-1.2h-3.067l-.479,1.2h-1.485l2.8-6.744h1.4Zm-3.5-5.029-1.063,2.669h2.127Z" transform="translate(8.015 3.121)" fill="#ffffff"/>
    <path id="Path_67" data-name="Path 67" d="M171.87,57.154h4.744v1.291h-1.668V63.9h-1.4V58.444H171.87Z" transform="translate(8.385 3.121)" fill="#ffffff"/>
    <path id="Path_69" data-name="Path 69" d="M184.3,63.9h-1.485l-.479-1.2H179.27l-.479,1.2h-1.485l2.8-6.744h1.4Zm-3.5-5.029-1.063,2.669h2.127Z" transform="translate(8.65 3.121)" fill="#ffffff"/>
  </g>
</svg>
